<?xml version="1.0" encoding="utf-8"?>
<svg x="0px" y="0px" width="256px" height="256px" viewBox="0 0 256 256" xmlns="http://www.w3.org/2000/svg" xmlns:xlink="http://www.w3.org/1999/xlink">
  <!--Generated by AMDN-->
  <g id="Layer_1">
    <path id="Path" style="fill:#00934d;fill-opacity:1;fill-rule:evenodd;opacity:1;stroke:none;" d="M8,40 C8,22.3269,22.3269,8,40,8 C40,8,216,8,216,8 C233.673,8,248,22.3269,248,40 C248,40,248,216,248,216 C248,233.673,233.673,248,216,248 C216,248,40,248,40,248 C22.3269,248,8,233.673,8,216 C8,216,8,40,8,40 z"/>
    <path id="Path-1" style="fill:none;opacity:1;stroke:#ffffff;stroke-linecap:round;stroke-linejoin:round;stroke-miterlimit:10;stroke-opacity:1;stroke-width:16;" d="M136,56 C136,56,136,40,136,40 C136,31.1634,143.163,24,152,24 C152,24,184,24,184,24 C192.837,24,200,31.1634,200,40 C200,40,200,72,200,72 C200,80.8366,192.837,88,184,88 C184,88,184,88,184,88 C175.163,88,168,95.1634,168,104 C168,104,168,112,168,112"/>
    <path id="Path-2" style="fill:#ffffff;fill-opacity:1;fill-rule:evenodd;opacity:1;stroke:none;" d="M168,128 C172.418,128,176,131.582,176,136 C176,140.418,172.418,144,168,144 C163.582,144,160,140.418,160,136 C160,131.582,163.582,128,168,128 z"/>
    <path id="Path-3" style="fill:none;opacity:1;stroke:#ffffff;stroke-linecap:round;stroke-linejoin:round;stroke-miterlimit:10;stroke-opacity:1;stroke-width:8;" d="M52.043,88 C52.043,88,132.043,88,132.043,88 C132.043,88,146.005,144,146.005,144 C146.005,144,66.0054,144,66.0054,144 C66.0054,144,52.043,88,52.043,88 z"/>
    <path id="Path-4" style="fill:none;opacity:1;stroke:#ffffff;stroke-linecap:round;stroke-linejoin:round;stroke-miterlimit:10;stroke-opacity:1;stroke-width:16;" d="M168,168 C168,168,120,168,120,168 C120,168,104,232,104,232 C104,232,72,232,72,232"/>
    <path id="Path-5" style="fill:none;opacity:1;stroke:#ffffff;stroke-linecap:round;stroke-linejoin:round;stroke-miterlimit:10;stroke-opacity:1;stroke-width:16;" d="M88,168 C88,168,120,128,120,128 C120,128,160,184,160,184 C160,184,184,168,184,168"/>
    <g id="Path-6">
      <path style="fill:#ffffff;fill-opacity:1;fill-rule:nonzero;opacity:1;stroke:none;" d="M94.2469,172.998 C102.711,162.418,111.175,151.838,119.639,141.258 C130.923,157.055,142.206,172.853,153.49,188.65 C155.943,192.084,160.926,192.997,164.438,190.656 C172.438,185.323,180.438,179.99,188.438,174.656 C192.09,172.268,193.093,167.014,190.656,163.562 C188.408,159.985,183.172,158.891,179.562,161.344 C173.711,165.245,167.859,169.146,162.008,173.047 C150.175,156.481,138.342,139.916,126.51,123.35 C123.52,119.165,116.966,118.986,113.753,123.002 C103.086,136.336,92.4197,149.669,81.7531,163.002 C78.9966,166.386,79.6337,171.697,83.0024,174.247 C86.2295,176.974,91.5506,176.43,94.2469,172.998 z"/>
      <path style="fill:#00934e;fill-opacity:1;fill-rule:nonzero;opacity:1;stroke:none;" d="M100.494,177.995 C107.476,169.268,114.739,160.189,122.582,150.386 C122.582,150.386,116.203,150.212,116.203,150.212 C124.752,162.181,131.592,171.756,146.98,193.3 C152.104,200.275,161.611,202.017,168.831,197.342 C180.875,189.313,186.204,185.76,192.846,181.332 C200.268,176.266,202.213,166.397,197.241,159.019 C197.241,159.019,190.595,163.474,190.595,163.474 C190.655,163.563,190.655,163.563,190.715,163.653 C190.715,163.653,197.382,159.232,197.382,159.232 C192.488,151.81,182.633,149.8,175.162,154.663 C170.769,157.591,166.221,160.623,160.793,164.242 C160.793,164.242,166.266,165.245,166.266,165.245 C163.496,161.367,139.946,128.397,133.02,118.7 C126.673,110.191,114.307,109.854,107.559,117.941 C89.7833,140.158,84.2415,147.086,75.5282,157.977 C69.9917,165.056,71.1299,175.049,78.1054,180.572 C78.1054,180.572,83.0871,174.313,83.0871,174.313 C83.0033,174.246,83.0033,174.246,82.9199,174.179 C82.9199,174.179,77.9062,180.413,77.9062,180.413 C84.82,186.001,94.8209,184.928,100.466,178.029 z M94.2747,172.963 C91.406,176.469,86.4155,177.004,82.9352,174.191 C82.9352,174.191,80.4207,177.302,80.4207,177.302 C80.4207,177.302,77.9215,180.425,77.9215,180.425 C78.0058,180.493,78.0058,180.493,78.0898,180.56 C78.0898,180.56,80.5884,177.436,80.5884,177.436 C80.5884,177.436,83.0714,174.3,83.0714,174.3 C79.5602,171.52,78.9922,166.533,81.8024,162.941 C90.4885,152.083,96.0303,145.156,113.753,123.002 C117.137,118.949,123.352,119.119,126.559,123.417 C133.436,133.047,156.986,166.016,159.756,169.895 C159.756,169.895,162.008,173.047,162.008,173.047 C162.008,173.047,165.23,170.898,165.23,170.898 C170.659,167.279,175.207,164.248,179.562,161.344 C183.322,158.897,188.24,159.9,190.704,163.636 C190.704,163.636,194.043,161.434,194.043,161.434 C194.043,161.434,197.371,159.215,197.371,159.215 C197.312,159.126,197.312,159.126,197.252,159.036 C197.252,159.036,193.924,161.255,193.924,161.255 C193.924,161.255,190.607,163.491,190.607,163.491 C193.11,167.204,192.139,172.129,188.372,174.7 C181.766,179.104,176.438,182.656,164.438,190.656 C160.817,193,156.044,192.125,153.459,188.607 C138.102,167.106,131.262,157.531,122.713,145.562 C122.713,145.562,119.639,141.258,119.639,141.258 C119.639,141.258,116.335,145.388,116.335,145.388 C108.492,155.191,101.229,164.27,94.2469,172.998 z"/>
    </g>
  </g>
</svg>
